<svg xmlns="http://www.w3.org/2000/svg" width="1024" height="1024" viewBox="0 0 1024 1024">
<g>
<path d="M 542.50 746.00 C534.81,747.97 531.60,748.00 355.59,747.91 C211.80,747.83 175.20,747.55 169.89,746.50 C153.80,743.29 141.06,732.19 136.09,717.03 L 134.00 710.67 L 134.00 465.02 C134.00,445.64 134.00,427.75 133.99,411.23 C133.97,222.14 133.96,212.77 138.36,206.44 C138.97,205.56 139.67,204.74 140.46,203.49 C146.55,193.97 158.51,186.09 170.09,183.98 C173.77,183.31 220.75,183.05 307.09,183.23 L 438.50 183.50 L 447.09 187.70 C455.65,191.89 455.89,192.11 512.59,248.91 C564.81,301.21 569.81,306.51 573.27,313.21 C576.41,319.29 577.19,322.08 578.00,330.00 C579.30,342.81 579.33,524.00 578.03,524.00 C577.49,524.00 570.07,517.11 561.53,508.70 L 546.00 493.40 L 546.00 348.00 L 500.75 347.98 C452.19,347.96 447.95,347.62 436.95,342.74 C428.77,339.12 419.07,329.04 415.39,320.33 L 412.50 313.50 L 411.91 215.00 L 176.46 215.00 L 172.88 217.44 C171.91,218.10 171.08,218.29 170.36,218.69 C165.95,221.15 165.96,231.50 165.99,407.03 C166.00,424.54 166.00,443.70 166.00,464.65 C166.00,689.10 166.10,702.70 167.75,705.98 C168.71,707.89 171.03,710.48 172.90,711.73 L 176.30 714.00 L 535.70 714.00 L 539.10 711.73 C545.39,707.53 546.00,704.96 546.00,682.38 L 546.00 662.25 L 561.62 647.08 C570.21,638.73 577.52,632.19 577.87,632.54 C578.22,632.88 578.50,649.89 578.50,670.33 C578.50,705.88 578.40,707.81 576.29,714.51 C571.23,730.59 559.31,741.70 542.50,746.00 ZM 499.20 666.96 C494.39,668.30 494.28,668.28 489.00,665.92 C480.83,662.26 480.54,661.36 480.19,638.25 L 479.89 618.00 L 440.19 617.98 C400.97,617.97 400.45,617.94 396.58,615.73 C394.13,614.34 391.77,611.84 390.33,609.09 C388.07,604.81 388.00,603.96 388.00,578.86 C388.00,550.11 388.50,547.25 394.30,542.90 L 397.50 540.50 L 479.50 539.50 L 480.00 519.31 L 480.50 499.13 L 483.50 495.94 C488.94,490.16 496.11,488.51 502.30,491.60 C506.08,493.48 579.47,566.26 581.57,570.20 C583.54,573.91 583.37,581.85 581.25,585.72 C580.29,587.48 562.26,606.24 541.20,627.42 C510.33,658.46 502.18,666.13 499.20,666.96 ZM 858.00 722.49 C854.36,723.60 847.19,724.35 836.75,724.72 L 821.00 725.28 L 821.00 688.00 L 833.04 688.00 C846.68,688.00 850.96,686.61 855.30,680.76 C859.70,674.84 860.00,672.28 860.00,641.06 C860.00,618.01 860.33,610.15 861.49,605.69 C864.63,593.66 871.55,583.96 880.71,578.80 L 886.14 575.73 L 880.32 572.00 C871.44,566.30 866.18,559.84 862.30,549.89 C860.84,546.15 860.51,540.20 860.05,509.50 C859.43,468.64 859.37,468.36 851.08,462.50 C846.97,459.60 846.40,459.49 833.92,459.15 L 821.00 458.80 L 821.00 423.00 L 835.61 423.00 C852.10,423.00 858.94,424.31 868.50,429.30 C881.17,435.91 890.02,445.99 894.84,459.28 C897.43,466.43 897.46,466.84 897.99,502.50 C898.47,535.01 898.70,538.84 900.38,542.00 C904.20,549.21 908.68,552.48 917.50,554.50 L 922.50 555.65 L 923.04 598.00 L 918.77 598.02 C909.82,598.07 901.30,604.80 899.09,613.56 C898.43,616.18 897.99,629.44 897.99,647.19 C897.97,679.84 897.32,684.83 891.72,695.41 C885.38,707.40 871.85,718.26 858.00,722.49 ZM 709.00 688.00 L 709.00 725.00 L 696.75 724.88 C690.01,724.81 682.21,724.41 679.40,724.00 C658.17,720.89 640.77,706.18 634.45,686.00 C633.01,681.41 632.66,675.21 632.33,648.50 C632.12,630.86 631.47,614.67 630.89,612.43 C629.63,607.52 624.31,601.44 619.54,599.45 C617.63,598.65 614.02,598.00 611.53,598.00 L 607.00 598.00 L 607.00 577.11 C607.00,576.45 607.00,575.82 607.00,575.20 C607.00,560.90 607.00,556.71 608.90,555.49 C609.68,554.99 610.80,554.99 612.37,555.00 C612.53,555.00 612.70,555.00 612.88,555.00 C614.37,555.00 618.04,553.54 621.04,551.75 C625.35,549.19 627.08,547.35 629.25,543.07 L 632.00 537.64 L 632.02 506.57 C632.03,489.48 632.48,472.43 633.03,468.67 C635.98,448.27 652.97,429.89 673.92,424.43 C677.49,423.50 684.60,423.00 694.21,423.00 L 709.00 423.00 L 709.00 458.76 L 696.71 459.17 C685.88,459.53 683.95,459.86 680.46,462.00 C676.44,464.45 675.28,465.57 672.22,469.95 C670.70,472.11 670.43,476.56 669.92,507.45 C669.38,539.64 669.16,543.03 667.19,549.04 C663.61,559.98 656.14,569.25 647.13,573.92 L 643.76 575.67 L 648.25 578.30 C654.34,581.87 662.82,591.36 665.67,597.81 C669.22,605.82 669.96,613.85 669.98,644.78 C670.00,676.29 670.22,677.56 676.43,682.68 C681.55,686.90 686.08,688.00 698.37,688.00 ZM 473.96 462.52 C471.48,463.80 454.75,464.00 348.20,464.00 L 225.30 464.00 L 221.99 461.75 C217.05,458.39 214.77,454.70 214.30,449.32 C213.79,443.38 216.09,438.48 220.90,435.27 L 224.30 433.00 L 474.20 433.00 L 477.51 436.31 C485.35,444.15 483.53,457.57 473.96,462.52 ZM 372.04 390.00 C369.87,390.61 341.25,390.98 298.00,390.97 C231.53,390.96 227.27,390.85 223.42,389.10 C218.62,386.92 215.44,383.20 213.85,377.90 C212.29,372.69 214.81,366.01 219.76,362.23 L 223.34 359.50 L 297.92 359.24 C370.47,358.99 372.59,359.04 375.70,360.95 C387.21,368.01 384.90,386.43 372.04,390.00 ZM 357.90 537.50 C354.61,539.43 352.60,539.50 296.00,539.61 C263.83,539.67 234.57,539.44 231.00,539.09 C219.56,537.97 214.01,532.98 214.00,523.82 C214.00,515.62 216.67,511.29 223.49,508.44 C226.37,507.24 237.48,507.00 290.72,507.00 C293.44,507.00 296.05,507.00 298.56,507.00 C350.19,506.99 357.86,506.99 361.52,510.82 C362.34,511.68 362.96,512.72 363.82,514.00 C365.81,516.96 366.12,518.45 365.79,523.74 C365.36,530.78 363.34,534.29 357.90,537.50 ZM 455.74 313.57 C458.60,314.59 467.89,314.92 494.75,314.96 C514.14,314.98 530.00,314.73 530.00,314.40 C530.00,313.47 446.75,230.00 445.82,230.00 C445.37,230.00 445.01,246.09 445.02,265.75 C445.04,298.16 445.21,301.87 446.86,305.50 C449.02,310.24 450.70,311.77 455.74,313.57 Z" fill="rgb(242,118,49)"/>
<path d="M 0.00 512.00 L 0.00 0.00 L 512.00 0.00 L 1024.00 0.00 L 1024.00 512.00 L 1024.00 1024.00 L 512.00 1024.00 L 0.00 1024.00 L 0.00 512.00 ZM 542.50 746.00 C559.31,741.70 571.23,730.59 576.29,714.51 C578.40,707.81 578.50,705.88 578.50,670.33 C578.50,649.89 578.22,632.88 577.87,632.54 C577.52,632.19 570.21,638.73 561.62,647.08 L 546.00 662.25 L 546.00 682.38 C546.00,704.96 545.39,707.53 539.10,711.73 L 535.70 714.00 L 356.00 714.00 L 176.30 714.00 L 172.90 711.73 C171.03,710.48 168.71,707.89 167.75,705.98 C166.10,702.70 166.00,689.10 166.00,464.65 C166.00,199.52 165.36,222.55 172.88,217.44 L 176.46 215.00 L 294.19 215.00 L 411.91 215.00 L 412.21 264.25 L 412.50 313.50 L 415.39 320.33 C419.07,329.04 428.77,339.12 436.95,342.74 C447.95,347.62 452.19,347.96 500.75,347.98 L 546.00 348.00 L 546.00 420.70 L 546.00 493.40 L 561.53 508.70 C570.07,517.11 577.49,524.00 578.03,524.00 C579.33,524.00 579.30,342.81 578.00,330.00 C577.19,322.08 576.41,319.29 573.27,313.21 C569.81,306.51 564.81,301.21 512.59,248.91 C455.89,192.11 455.65,191.89 447.09,187.70 L 438.50 183.50 L 307.09 183.23 C220.75,183.05 173.77,183.31 170.09,183.98 C158.51,186.09 146.55,193.97 140.46,203.49 C133.47,214.43 134.00,192.85 134.00,465.02 L 134.00 710.67 L 136.09 717.03 C141.06,732.19 153.80,743.29 169.89,746.50 C175.20,747.55 211.80,747.83 355.59,747.91 C531.60,748.00 534.81,747.97 542.50,746.00 ZM 709.00 706.50 L 709.00 688.00 L 698.37 688.00 C686.08,688.00 681.55,686.90 676.43,682.68 C670.22,677.56 670.00,676.29 669.98,644.78 C669.96,613.85 669.22,605.82 665.67,597.81 C662.82,591.36 654.34,581.87 648.25,578.30 L 643.76 575.67 L 647.13 573.92 C656.14,569.25 663.61,559.98 667.19,549.04 C669.16,543.03 669.38,539.64 669.92,507.45 C670.43,476.56 670.70,472.11 672.22,469.95 C675.28,465.57 676.44,464.45 680.46,462.00 C683.95,459.86 685.88,459.53 696.71,459.17 L 709.00 458.76 L 709.00 440.88 L 709.00 423.00 L 694.21 423.00 C684.60,423.00 677.49,423.50 673.92,424.43 C652.97,429.89 635.98,448.27 633.03,468.67 C632.48,472.43 632.03,489.48 632.02,506.57 L 632.00 537.64 L 629.25 543.07 C627.08,547.35 625.35,549.19 621.04,551.75 C618.04,553.54 614.37,555.00 612.88,555.00 C606.82,555.00 607.00,554.33 607.00,577.11 L 607.00 598.00 L 611.53 598.00 C614.02,598.00 617.63,598.65 619.54,599.45 C624.31,601.44 629.63,607.52 630.89,612.43 C631.47,614.67 632.12,630.86 632.33,648.50 C632.66,675.21 633.01,681.41 634.45,686.00 C640.77,706.18 658.17,720.89 679.40,724.00 C682.21,724.41 690.01,724.81 696.75,724.88 L 709.00 725.00 L 709.00 706.50 ZM 858.00 722.49 C871.85,718.26 885.38,707.40 891.72,695.41 C897.32,684.83 897.97,679.84 897.99,647.19 C897.99,629.44 898.43,616.18 899.09,613.56 C901.30,604.80 909.82,598.07 918.77,598.02 L 923.04 598.00 L 922.77 576.82 L 922.50 555.65 L 917.50 554.50 C908.68,552.48 904.20,549.21 900.38,542.00 C898.70,538.84 898.47,535.01 897.99,502.50 C897.46,466.84 897.43,466.43 894.84,459.28 C890.02,445.99 881.17,435.91 868.50,429.30 C858.94,424.31 852.10,423.00 835.61,423.00 L 821.00 423.00 L 821.00 440.90 L 821.00 458.80 L 833.92 459.15 C846.40,459.49 846.97,459.60 851.08,462.50 C859.37,468.36 859.43,468.64 860.05,509.50 C860.51,540.20 860.84,546.15 862.30,549.89 C866.18,559.84 871.44,566.30 880.32,572.00 L 886.14 575.73 L 880.71 578.80 C871.55,583.96 864.63,593.66 861.49,605.69 C860.33,610.15 860.00,618.01 860.00,641.06 C860.00,672.28 859.70,674.84 855.30,680.76 C850.96,686.61 846.68,688.00 833.04,688.00 L 821.00 688.00 L 821.00 706.64 L 821.00 725.28 L 836.75 724.72 C847.19,724.35 854.36,723.60 858.00,722.49 ZM 499.20 666.96 C502.18,666.13 510.33,658.46 541.20,627.42 C562.26,606.24 580.29,587.48 581.25,585.72 C583.37,581.85 583.54,573.91 581.57,570.20 C579.47,566.26 506.08,493.48 502.30,491.60 C496.11,488.51 488.94,490.16 483.50,495.94 L 480.50 499.13 L 480.00 519.31 L 479.50 539.50 L 438.50 540.00 L 397.50 540.50 L 394.30 542.90 C388.50,547.25 388.00,550.11 388.00,578.86 C388.00,603.96 388.07,604.81 390.33,609.09 C391.77,611.84 394.13,614.34 396.58,615.73 C400.45,617.94 400.97,617.97 440.19,617.98 L 479.89 618.00 L 480.19 638.25 C480.54,661.36 480.83,662.26 489.00,665.92 C494.28,668.28 494.39,668.30 499.20,666.96 ZM 357.90 537.50 C363.34,534.29 365.36,530.78 365.79,523.74 C366.12,518.45 365.81,516.96 363.82,514.00 C358.91,506.71 361.93,507.00 290.72,507.00 C237.48,507.00 226.37,507.24 223.49,508.44 C216.67,511.29 214.00,515.62 214.00,523.82 C214.01,532.98 219.56,537.97 231.00,539.09 C234.57,539.44 263.83,539.67 296.00,539.61 C352.60,539.50 354.61,539.43 357.90,537.50 ZM 473.96 462.52 C483.53,457.57 485.35,444.15 477.51,436.31 L 474.20 433.00 L 349.25 433.00 L 224.30 433.00 L 220.90 435.27 C216.09,438.48 213.79,443.38 214.30,449.32 C214.77,454.70 217.05,458.39 221.99,461.75 L 225.30 464.00 L 348.20 464.00 C454.75,464.00 471.48,463.80 473.96,462.52 ZM 372.04 390.00 C384.90,386.43 387.21,368.01 375.70,360.95 C372.59,359.04 370.47,358.99 297.92,359.24 L 223.34 359.50 L 219.76 362.23 C214.81,366.01 212.29,372.69 213.85,377.90 C215.44,383.20 218.62,386.92 223.42,389.10 C227.27,390.85 231.53,390.96 298.00,390.97 C341.25,390.98 369.87,390.61 372.04,390.00 ZM 455.74 313.57 C450.70,311.77 449.02,310.24 446.86,305.50 C445.21,301.87 445.04,298.16 445.02,265.75 C445.01,246.09 445.37,230.00 445.82,230.00 C446.75,230.00 530.00,313.47 530.00,314.40 C530.00,314.73 514.14,314.98 494.75,314.96 C467.89,314.92 458.60,314.59 455.74,313.57 Z" fill="rgb(254,254,254)"/>
</g>
</svg>