<svg width="2048" height="2048" viewBox="0 0 2048 2048" fill="none" xmlns="http://www.w3.org/2000/svg">
<path d="M1058.21 1714.23C1039.4 1719.08 1031.55 1719.16 601.034 1718.93C249.327 1718.74 159.805 1718.05 146.817 1715.46C107.461 1707.56 76.2993 1680.24 64.1428 1642.93L59.0307 1627.28V1022.68C59.0307 974.984 59.0307 930.953 59.0063 890.293C58.9574 424.902 58.9329 401.841 69.6952 386.261C71.1872 384.095 72.8994 382.077 74.8317 379.001C89.7277 355.57 118.981 336.176 147.306 330.982C156.307 329.333 271.219 328.694 482.404 329.137L803.829 329.801L824.84 340.138C845.777 350.451 846.365 350.992 985.051 490.789C1112.78 619.511 1125.01 632.555 1133.47 649.045C1141.15 664.009 1143.06 670.876 1145.04 690.369C1148.22 721.897 1148.3 1167.84 1145.12 1167.84C1143.79 1167.84 1125.65 1150.89 1104.76 1130.19L1066.77 1092.53V734.671L956.091 734.622C837.314 734.572 826.944 733.735 800.038 721.725C780.03 712.815 756.304 688.006 747.303 666.569L740.234 649.759L738.791 407.329H162.887L154.13 413.335C151.758 414.959 149.727 415.427 147.966 416.411C137.18 422.466 137.204 447.939 137.277 879.956C137.302 923.052 137.302 970.209 137.302 1021.77C137.302 1574.19 137.546 1607.66 141.582 1615.74C143.93 1620.44 149.605 1626.81 154.179 1629.89L162.495 1635.47H1041.58L1049.89 1629.89C1065.28 1619.55 1066.77 1613.23 1066.77 1557.65V1508.11L1104.98 1470.77C1125.99 1450.22 1143.87 1434.12 1144.72 1434.98C1145.58 1435.82 1146.27 1477.69 1146.27 1527.99C1146.27 1615.49 1146.02 1620.24 1140.86 1636.73C1128.48 1676.31 1099.33 1703.65 1058.21 1714.23ZM952.3 1519.7C940.534 1523 940.265 1522.95 927.351 1517.14C907.367 1508.13 906.658 1505.92 905.802 1449.04L905.068 1399.2L807.963 1399.15C712.032 1399.12 710.76 1399.05 701.294 1393.61C695.301 1390.19 689.529 1384.04 686.007 1377.27C680.479 1366.74 680.307 1364.64 680.307 1302.87C680.307 1232.11 681.53 1225.07 695.717 1214.36L703.544 1208.45L904.114 1205.99L905.337 1156.3L906.56 1106.63L913.898 1098.78C927.204 1084.56 944.741 1080.5 959.882 1088.1C969.128 1092.73 1148.64 1271.86 1153.77 1281.55C1158.59 1290.68 1158.18 1310.23 1152.99 1319.75C1150.64 1324.08 1106.54 1370.25 1055.03 1422.38C979.523 1498.78 959.589 1517.66 952.3 1519.7ZM1829.91 1656.37C1821.01 1659.1 1803.47 1660.95 1777.94 1661.86L1739.41 1663.24V1571.48H1768.86C1802.23 1571.48 1812.69 1568.06 1823.31 1553.66C1834.07 1539.09 1834.81 1532.79 1834.81 1455.95C1834.81 1399.22 1835.61 1379.88 1838.45 1368.9C1846.13 1339.29 1863.06 1315.42 1885.46 1302.72L1898.74 1295.16L1884.51 1285.98C1862.79 1271.95 1849.92 1256.05 1840.43 1231.57C1836.86 1222.36 1836.05 1207.72 1834.93 1132.16C1833.41 1031.59 1833.27 1030.9 1812.99 1016.48C1802.94 1009.34 1801.54 1009.07 1771.02 1008.23L1739.41 1007.37V919.262H1775.15C1815.48 919.262 1832.21 922.486 1855.6 934.767C1886.59 951.036 1908.23 975.845 1920.02 1008.55C1926.36 1026.15 1926.43 1027.16 1927.73 1114.93C1928.9 1194.94 1929.47 1204.37 1933.57 1212.15C1942.92 1229.89 1953.88 1237.94 1975.45 1242.91L1987.68 1245.74L1989 1349.97L1978.56 1350.02C1956.66 1350.15 1935.82 1366.71 1930.42 1388.27C1928.8 1394.72 1927.73 1427.35 1927.73 1471.04C1927.68 1551.4 1926.09 1563.68 1912.39 1589.72C1896.88 1619.23 1863.79 1645.96 1829.91 1656.37ZM1465.46 1571.48V1662.55L1435.5 1662.25C1419.02 1662.08 1399.94 1661.1 1393.06 1660.09C1341.14 1652.43 1298.58 1616.23 1283.12 1566.56C1279.6 1555.26 1278.74 1540 1277.93 1474.27C1277.42 1430.85 1275.83 1391 1274.41 1385.49C1271.33 1373.4 1258.31 1358.44 1246.65 1353.54C1241.98 1351.57 1233.15 1349.97 1227.06 1349.97H1215.98V1298.56C1215.98 1296.93 1215.98 1295.38 1215.98 1293.86C1215.98 1258.66 1215.98 1248.35 1220.62 1245.35C1222.53 1244.12 1225.27 1244.12 1229.11 1244.14C1229.5 1244.14 1229.92 1244.14 1230.36 1244.14C1234 1244.14 1242.98 1240.55 1250.32 1236.14C1260.86 1229.84 1265.09 1225.31 1270.4 1214.78L1277.12 1201.42L1277.17 1124.95C1277.2 1082.88 1278.3 1040.92 1279.64 1031.67C1286.86 981.457 1328.42 936.219 1379.66 922.781C1388.39 920.492 1405.78 919.262 1429.29 919.262H1465.46V1007.27L1435.4 1008.28C1408.91 1009.17 1404.19 1009.98 1395.66 1015.25C1385.82 1021.28 1382.99 1024.04 1375.5 1034.82C1371.78 1040.13 1371.12 1051.08 1369.88 1127.11C1368.55 1206.34 1368.02 1214.68 1363.2 1229.47C1354.44 1256.4 1336.17 1279.21 1314.13 1290.71L1305.89 1295.02L1316.87 1301.49C1331.77 1310.27 1352.51 1333.63 1359.48 1349.51C1368.16 1369.22 1369.97 1388.98 1370.02 1465.11C1370.07 1542.66 1370.61 1545.79 1385.8 1558.39C1398.32 1568.78 1409.4 1571.48 1439.46 1571.48H1465.46ZM890.563 1016.53C884.497 1019.68 843.576 1020.17 582.958 1020.17H282.348L274.252 1014.63C262.169 1006.36 256.592 997.282 255.442 984.041C254.195 969.421 259.821 957.361 271.586 949.461L279.902 943.874H891.15L899.246 952.02C918.423 971.316 913.971 1004.35 890.563 1016.53ZM641.27 838.042C635.962 839.543 565.958 840.454 460.17 840.429C297.586 840.404 287.166 840.134 277.749 835.827C266.009 830.461 258.231 821.305 254.342 808.261C250.526 795.438 256.69 778.997 268.797 769.694L277.554 762.975L459.974 762.335C637.43 761.719 642.615 761.843 650.222 766.543C678.375 783.92 672.725 829.255 641.27 838.042ZM606.684 1201.07C598.636 1205.82 593.72 1205.99 455.278 1206.26C376.591 1206.41 305.022 1205.85 296.29 1204.98C268.308 1202.23 254.733 1189.95 254.708 1167.4C254.708 1147.22 261.239 1136.56 277.921 1129.55C284.965 1126.59 312.14 1126 442.363 1126C449.016 1126 455.4 1126 461.54 1126C587.825 1125.98 606.586 1125.98 615.538 1135.41C617.544 1137.52 619.06 1140.08 621.164 1143.23C626.031 1150.52 626.79 1154.18 625.982 1167.2C624.931 1184.53 619.99 1193.17 606.684 1201.07ZM845.998 649.931C852.993 652.442 875.716 653.254 941.415 653.352C988.842 653.401 1027.64 652.786 1027.64 651.974C1027.64 649.685 824.008 444.248 821.734 444.248C820.633 444.248 819.752 483.848 819.777 532.236C819.826 612.004 820.242 621.135 824.277 630.069C829.561 641.735 833.67 645.501 845.998 649.931Z" fill="#F27631"/>
</svg>
