<svg width="2048" height="2048" viewBox="0 0 2048 2048" fill="none" xmlns="http://www.w3.org/2000/svg">
<path d="M1049.91 1671.54C1032.36 1676.08 1025.04 1676.15 623.523 1675.94C295.507 1675.75 212.015 1675.11 199.902 1672.69C163.197 1665.3 134.134 1639.75 122.796 1604.86L118.029 1590.22V1024.77C118.029 980.157 118.029 938.977 118.006 900.951C117.96 465.693 117.937 444.125 127.975 429.554C129.366 427.528 130.963 425.641 132.765 422.763C146.658 400.85 173.941 382.711 200.358 377.854C208.753 376.312 315.924 375.713 512.884 376.128L812.659 376.749L832.255 386.417C851.782 396.062 852.33 396.568 981.675 527.314C1100.8 647.701 1112.21 659.9 1120.1 675.323C1127.26 689.318 1129.04 695.74 1130.89 713.971C1133.85 743.458 1133.92 1160.53 1130.96 1160.53C1129.73 1160.53 1112.8 1144.67 1093.32 1125.31L1057.89 1090.09V755.404L954.665 755.358C843.889 755.312 834.217 754.53 809.123 743.296C790.463 734.964 768.335 711.761 759.94 691.712L753.348 675.99L752.002 449.258H214.889L206.722 454.874C204.51 456.393 202.616 456.831 200.974 457.751C190.914 463.414 190.936 487.238 191.005 891.283C191.028 931.588 191.028 975.692 191.028 1023.92C191.028 1540.57 191.256 1571.87 195.02 1579.42C197.21 1583.82 202.502 1589.78 206.768 1592.66L214.524 1597.88H1034.39L1042.15 1592.66C1056.5 1582.99 1057.89 1577.07 1057.89 1525.1V1478.76L1093.52 1443.84C1113.12 1424.62 1129.79 1409.57 1130.59 1410.37C1131.39 1411.16 1132.03 1450.31 1132.03 1497.36C1132.03 1579.19 1131.8 1583.63 1126.99 1599.06C1115.45 1636.07 1088.25 1661.64 1049.91 1671.54ZM951.129 1489.6C940.156 1492.69 939.905 1492.64 927.861 1487.21C909.223 1478.79 908.562 1476.71 907.763 1423.52L907.079 1376.9L816.514 1376.86C727.045 1376.84 725.859 1376.77 717.031 1371.68C711.442 1368.48 706.058 1362.73 702.773 1356.4C697.617 1346.54 697.458 1344.59 697.458 1286.81C697.458 1220.63 698.598 1214.05 711.829 1204.04L719.129 1198.51L906.189 1196.21L907.33 1149.73L908.47 1103.28L915.314 1095.94C927.724 1082.64 944.08 1078.84 958.201 1085.95C966.824 1090.28 1134.24 1257.81 1139.03 1266.88C1143.53 1275.42 1143.14 1293.69 1138.3 1302.6C1136.11 1306.65 1094.98 1349.84 1046.94 1398.59C976.519 1470.04 957.927 1487.69 951.129 1489.6ZM1769.63 1617.43C1761.33 1619.98 1744.97 1621.71 1721.15 1622.56L1685.22 1623.85V1538.03H1712.69C1743.81 1538.03 1753.57 1534.84 1763.47 1521.37C1773.51 1507.74 1774.19 1501.85 1774.19 1429.99C1774.19 1376.93 1774.94 1358.84 1777.59 1348.57C1784.75 1320.88 1800.54 1298.55 1821.44 1286.67L1833.82 1279.61L1820.55 1271.02C1800.29 1257.9 1788.29 1243.03 1779.44 1220.13C1776.11 1211.52 1775.36 1197.82 1774.31 1127.15C1772.89 1033.1 1772.75 1032.46 1753.84 1018.97C1744.47 1012.29 1743.17 1012.04 1714.7 1011.26L1685.22 1010.45V928.043H1718.55C1756.17 928.043 1771.77 931.059 1793.58 942.545C1822.49 957.76 1842.67 980.963 1853.67 1011.55C1859.58 1028.01 1859.65 1028.96 1860.86 1111.04C1861.95 1185.87 1862.48 1194.69 1866.31 1201.96C1875.02 1218.56 1885.24 1226.09 1905.36 1230.74L1916.77 1233.38L1918 1330.87L1908.26 1330.91C1887.84 1331.03 1868.41 1346.52 1863.36 1366.68C1861.86 1372.72 1860.86 1403.24 1860.86 1444.1C1860.81 1519.25 1859.33 1530.74 1846.55 1555.09C1832.09 1582.69 1801.22 1607.69 1769.63 1617.43ZM1429.73 1538.03V1623.2L1401.78 1622.93C1386.41 1622.77 1368.61 1621.85 1362.2 1620.9C1313.77 1613.74 1274.08 1579.88 1259.66 1533.43C1256.38 1522.87 1255.58 1508.59 1254.83 1447.11C1254.35 1406.51 1252.87 1369.24 1251.54 1364.08C1248.67 1352.78 1236.53 1338.79 1225.65 1334.21C1221.29 1332.36 1213.06 1330.87 1207.38 1330.87H1197.04V1282.78C1197.04 1281.26 1197.04 1279.81 1197.04 1278.39C1197.04 1245.47 1197.04 1235.82 1201.38 1233.02C1203.16 1231.87 1205.71 1231.87 1209.29 1231.89C1209.66 1231.89 1210.05 1231.89 1210.46 1231.89C1213.86 1231.89 1222.23 1228.53 1229.07 1224.41C1238.9 1218.51 1242.85 1214.28 1247.8 1204.43L1254.07 1191.93L1254.12 1120.41C1254.14 1081.07 1255.17 1041.82 1256.42 1033.17C1263.15 986.211 1301.91 943.903 1349.7 931.335C1357.85 929.194 1374.07 928.043 1395.99 928.043H1429.73V1010.36L1401.69 1011.3C1376.99 1012.13 1372.58 1012.89 1364.62 1017.82C1355.45 1023.46 1352.81 1026.03 1345.83 1036.12C1342.36 1041.09 1341.74 1051.33 1340.58 1122.44C1339.35 1196.53 1338.84 1204.33 1334.35 1218.17C1326.18 1243.35 1309.14 1264.69 1288.59 1275.44L1280.9 1279.47L1291.14 1285.52C1305.04 1293.74 1324.38 1315.58 1330.88 1330.43C1338.98 1348.87 1340.67 1367.35 1340.72 1438.55C1340.76 1511.08 1341.26 1514 1355.43 1525.79C1367.11 1535.5 1377.44 1538.03 1405.48 1538.03H1429.73ZM893.551 1019.01C887.894 1021.96 849.729 1022.42 606.665 1022.42H326.304L318.753 1017.24C307.484 1009.51 302.283 1001.01 301.21 988.628C300.047 974.955 305.294 963.676 316.266 956.287L324.023 951.062H894.099L901.65 958.681C919.534 976.728 915.382 1007.62 893.551 1019.01ZM661.05 852.082C656.099 853.486 590.811 854.338 492.148 854.315C340.516 854.292 330.798 854.039 322.015 850.01C311.065 844.992 303.811 836.43 300.184 824.23C296.625 812.237 302.374 796.861 313.666 788.16L321.833 781.876L491.966 781.277C657.468 780.702 662.304 780.817 669.399 785.213C695.656 801.464 690.386 843.865 661.05 852.082ZM628.793 1191.61C621.288 1196.05 616.703 1196.21 487.586 1196.46C414.199 1196.6 347.451 1196.07 339.307 1195.27C313.21 1192.69 300.549 1181.2 300.526 1160.12C300.526 1141.24 306.617 1131.27 322.175 1124.71C328.745 1121.95 354.089 1121.4 475.541 1121.4C481.746 1121.4 487.7 1121.4 493.426 1121.4C611.205 1121.38 628.702 1121.38 637.051 1130.19C638.922 1132.17 640.336 1134.57 642.298 1137.51C646.838 1144.33 647.545 1147.76 646.792 1159.93C645.811 1176.14 641.203 1184.22 628.793 1191.61ZM851.987 676.151C858.512 678.499 879.704 679.259 940.978 679.351C985.21 679.397 1021.39 678.822 1021.39 678.062C1021.39 675.921 831.479 483.785 829.358 483.785C828.331 483.785 827.51 520.822 827.533 566.077C827.578 640.68 827.966 649.22 831.73 657.575C836.658 668.486 840.49 672.008 851.987 676.151Z" fill="#F27631"/>
</svg>
